# xmcd
#
# Track frame offsets:
# 150
# 17546
# 28396
# 60427
# 72065
# 87968
# 103795
# 118159
# 139924
#
# Disc length: 2064 seconds
#
#
# Revision: 0
# Processed by: cddbd v1.5.2PL0 Copyright (c) Steve Scherf et al.
# Submitted via: Nero 7, 2, 0, 3 
#
DISCID=78080e09
DTITLE=The Walking Stick Man - Caravan Blues
DYEAR=2005
DGENRE=Blues
TTITLE0=You'll Be Mine
TTITLE1=Evans Shuffle
TTITLE2=Back Door Man
TTITLE3=Easy
TTITLE4=Mistreated Blues
TTITLE5=St. Louis Blues
TTITLE6=Marie Marie
TTITLE7=Shufflin The Blues
TTITLE8=Bye Bye Bird
EXTD=
EXTT0=
EXTT1=
EXTT2=
EXTT3=
EXTT4=
EXTT5=
EXTT6=
EXTT7=
EXTT8=
PLAYORDER=
